HIERARCHY
ROOT joint_Root
{
	OFFSET 0.0 0.0 0.0
	CHANNELS 6 Xposition Yposition Zposition Zrotation Xrotation Yrotation 
	JOINT Hips
	{
		OFFSET 4.5925 91.4895 -427.239
		CHANNELS 6 Xposition Yposition Zposition Zrotation Xrotation Yrotation 
		JOINT Spine
		{
			OFFSET 15.7357 0.0 0.0
			CHANNELS 6 Xposition Yposition Zposition Zrotation Xrotation Yrotation 
			JOINT Chest
			{
				OFFSET 8.98455 -0.406207 0.0
				CHANNELS 6 Xposition Yposition Zposition Zrotation Xrotation Yrotation 
				JOINT Neck
				{
					OFFSET 16.3773 0.0 0.0
					CHANNELS 6 Xposition Yposition Zposition Zrotation Xrotation Yrotation 
					JOINT Head
					{
						OFFSET 6.45672 0.0 0.0
						CHANNELS 6 Xposition Yposition Zposition Zrotation Xrotation Yrotation 
						End Site
						{
							OFFSET 0.0 0.0 0.0
						}
					}
				}
				JOINT Shoulder_L
				{
					OFFSET 12.9942 -0.242716 4.98039
					CHANNELS 6 Xposition Yposition Zposition Zrotation Xrotation Yrotation 
					JOINT UpperArm_L
					{
						OFFSET 5.34809 0.0 0.0
						CHANNELS 6 Xposition Yposition Zposition Zrotation Xrotation Yrotation 
						JOINT LowerArm_L
						{
							OFFSET 24.3286 1.87007e-05 0.0
							CHANNELS 6 Xposition Yposition Zposition Zrotation Xrotation Yrotation 
							JOINT Hand_L
							{
								OFFSET 22.2916 0.0 0.0
								CHANNELS 6 Xposition Yposition Zposition Zrotation Xrotation Yrotation 
								End Site
								{
									OFFSET 0.0 0.0 0.0
								}
							}
						}
					}
				}
				JOINT Shoulder_R
				{
					OFFSET 12.9945 -0.242716 -4.98039
					CHANNELS 6 Xposition Yposition Zposition Zrotation Xrotation Yrotation 
					JOINT UpperArm_R
					{
						OFFSET -5.34813 0.0 0.0
						CHANNELS 6 Xposition Yposition Zposition Zrotation Xrotation Yrotation 
						JOINT LowerArm_R
						{
							OFFSET -24.3289 0.000322201 0.0
							CHANNELS 6 Xposition Yposition Zposition Zrotation Xrotation Yrotation 
							JOINT Hand_R
							{
								OFFSET -22.2915 -0.000108084 0.0
								CHANNELS 6 Xposition Yposition Zposition Zrotation Xrotation Yrotation 
								End Site
								{
									OFFSET 0.0 0.0 0.0
								}
							}
						}
					}
				}
			}
		}
		JOINT UpperLeg_L
		{
			OFFSET -2.19248 -6.46944 0.0
			CHANNELS 6 Xposition Yposition Zposition Zrotation Xrotation Yrotation 
			JOINT LowerLeg_L
			{
				OFFSET 39.0811 0.0 -1.23785e-05
				CHANNELS 6 Xposition Yposition Zposition Zrotation Xrotation Yrotation 
				JOINT Foot_L
				{
					OFFSET 40.9854 0.0 -1.26872e-05
					CHANNELS 6 Xposition Yposition Zposition Zrotation Xrotation Yrotation 
					JOINT Toes_L
					{
						OFFSET 11.7543 0.0 0.0
						CHANNELS 6 Xposition Yposition Zposition Zrotation Xrotation Yrotation 
						End Site
						{
							OFFSET 0.0 0.0 0.0
						}
					}
				}
			}
		}
		JOINT UpperLeg_R
		{
			OFFSET -2.19251 6.46944 0.0
			CHANNELS 6 Xposition Yposition Zposition Zrotation Xrotation Yrotation 
			JOINT LowerLeg_R
			{
				OFFSET -39.0811 -0.00228153 -0.0401928
				CHANNELS 6 Xposition Yposition Zposition Zrotation Xrotation Yrotation 
				JOINT Foot_R
				{
					OFFSET -40.9854 0.0 0.0
					CHANNELS 6 Xposition Yposition Zposition Zrotation Xrotation Yrotation 
					JOINT Toes_R
					{
						OFFSET -11.7543 0.0 0.0
						CHANNELS 6 Xposition Yposition Zposition Zrotation Xrotation Yrotation 
						End Site
						{
							OFFSET 0.0 0.0 0.0
						}
					}
				}
			}
		}
	}
}
MOTION
Frames:	4
Frame Time:	0.0333333
0.000000 0.000000 0.000000 0.000000 0.000000 -0.000000 -4.993530 81.334900 1.434350 85.929900 -4.303700 12.469600 15.735700 0.000005 -0.000001 80.669900 80.168700 -81.285200 8.984550 -0.406207 -0.000000 11.632500 -3.182160 -0.906300 16.377300 -0.000001 -0.000001 -1.735920 0.149755 0.834700 6.456720 -0.000001 -0.000000 -3.639520 5.379970 -5.221330 12.994200 -0.242716 4.980390 -91.379100 4.448380 -72.755700 5.348090 -0.000007 -0.000001 -61.117600 29.038100 -12.893600 24.328600 0.000019 0.000005 8.355310 13.398400 -32.364300 22.291600 -0.000001 0.000005 15.194400 5.180250 3.208740 12.994500 -0.242716 -4.980390 87.586300 10.665300 -77.168700 -5.348130 -0.000001 -0.000004 -61.831700 11.030500 -15.021900 -24.328900 0.000322 -0.000009 -4.641980 -16.633000 -15.830900 -22.291500 -0.000108 -0.000004 3.202910 4.894850 9.567600 -2.192480 -6.469440 -0.000000 -166.695000 -8.525830 -11.664600 39.081100 -0.000007 -0.000012 -0.652772 0.322042 63.742300 40.985400 -0.000006 -0.000013 -3.050740 5.257060 -88.495400 11.754300 -0.000000 0.000003 -0.000428 -0.003502 -16.706300 -2.192510 6.469440 -0.000001 -177.115000 11.287000 168.868000 -39.081100 -0.002282 -0.040193 0.096628 -0.047823 62.898300 -40.985400 0.000008 0.000006 10.348800 1.979860 -88.464700 -11.754300 -0.000006 -0.000006 -1.085720 -1.338620 -17.307500
0.000000 0.000000 0.000000 0.000000 0.000000 -0.000000 -5.871330 83.379400 2.327390 86.249400 -1.032950 11.993200 15.735700 0.000005 -0.000001 78.295800 81.276000 -80.662000 8.984550 -0.406207 -0.000000 9.263050 -3.550780 -4.441680 16.377300 -0.000001 -0.000001 -0.396696 -0.079389 -0.248639 6.456720 -0.000001 -0.000000 -2.977850 3.963770 -3.991890 12.994200 -0.242716 4.980390 -91.358500 4.122490 -71.742800 5.348090 -0.000007 -0.000001 -60.842000 26.442000 -12.766800 24.328600 0.000019 0.000005 6.814420 12.659600 -28.600800 22.291600 -0.000001 0.000005 15.741200 5.152740 3.877600 12.994500 -0.242716 -4.980390 87.914100 8.821040 -76.638600 -5.348130 -0.000001 -0.000004 -58.800100 4.843550 -13.768800 -24.328900 0.000322 -0.000009 -2.358240 -15.799300 -8.594900 -22.291500 -0.000108 -0.000004 -4.028280 4.743240 12.376100 -2.192480 -6.469440 -0.000000 -166.673000 -7.345710 -9.384540 39.081100 -0.000007 -0.000012 -0.578819 0.368672 57.506700 40.985400 -0.000006 -0.000013 -2.888980 7.095510 -85.449500 11.754300 -0.000000 0.000003 -0.000370 -0.003097 -16.692100 -2.192510 6.469440 -0.000001 -177.114000 13.188500 172.114000 -39.081100 -0.002282 -0.040193 0.095491 -0.060690 56.665900 -40.985400 0.000008 0.000006 10.069500 1.148490 -85.918400 -11.754300 -0.000006 -0.000006 -1.160890 -1.428570 -17.474400
0.000000 0.000000 0.000000 0.000000 0.000000 -0.000000 -6.494700 85.757300 2.953250 86.589600 1.771550 10.113200 15.735700 0.000005 -0.000001 73.065600 82.803500 -77.202900 8.984550 -0.406207 -0.000000 5.879290 -4.113580 -8.055990 16.377300 -0.000001 -0.000001 1.367610 -0.010183 -1.047070 6.456720 -0.000001 -0.000000 -2.711340 3.252220 -3.190170 12.994200 -0.242716 4.980390 -91.379400 3.923560 -70.612200 5.348090 -0.000007 -0.000001 -60.036900 23.227000 -10.689400 24.328600 0.000019 0.000005 6.354020 12.348500 -27.505600 22.291600 -0.000001 0.000005 14.953800 5.142570 4.118880 12.994500 -0.242716 -4.980390 88.370900 6.641960 -76.184600 -5.348130 -0.000001 -0.000004 -53.036000 -5.895400 -14.371800 -24.328900 0.000322 -0.000009 -1.182330 -15.598200 -4.386670 -22.291500 -0.000108 -0.000004 -2.042460 4.740180 12.433400 -2.192480 -6.469440 -0.000000 -167.040000 -6.791870 -7.802250 39.081100 -0.000007 -0.000012 -0.480095 0.407589 49.670700 40.985400 -0.000006 -0.000013 -2.919920 8.636470 -81.421300 11.754300 -0.000000 0.000003 -0.000229 -0.002073 -16.655400 -2.192510 6.469440 -0.000001 -176.896000 14.696700 174.299000 -39.081100 -0.002282 -0.040193 0.082189 -0.068766 48.939500 -40.985400 0.000008 0.000006 9.533080 0.949931 -82.082400 -11.754300 -0.000006 -0.000006 -1.211880 -1.481800 -17.820900
0.000000 0.000000 0.000000 0.000000 0.000000 -0.000000 -6.756700 87.800300 3.295010 86.455800 3.674260 8.023790 15.735700 0.000005 -0.000001 68.282000 84.271300 -73.298900 8.984550 -0.406207 -0.000000 2.728200 -4.015940 -9.930300 16.377300 -0.000001 -0.000001 2.843720 -0.585253 -2.605570 6.456720 -0.000001 -0.000000 -2.869680 2.637310 -3.251260 12.994200 -0.242716 4.980390 -91.502600 4.153920 -70.093700 5.348090 -0.000007 -0.000001 -59.962600 20.613600 -8.233980 24.328600 0.000019 0.000005 6.012180 12.433400 -26.066600 22.291600 -0.000001 0.000005 14.304000 5.166500 3.545660 12.994500 -0.242716 -4.980390 88.989300 3.954160 -75.650300 -5.348130 -0.000001 -0.000004 -43.369700 -18.462300 -17.617400 -24.328900 0.000322 -0.000009 -1.117910 -19.911000 -3.274530 -22.291500 -0.000108 -0.000004 5.196260 4.823770 10.906000 -2.192480 -6.469440 -0.000000 -167.230000 -6.440790 -6.620050 39.081100 -0.000007 -0.000012 -0.390649 0.429773 42.270600 40.985400 -0.000006 -0.000013 -3.189500 9.332280 -77.542200 11.754300 -0.000000 0.000003 -0.000173 -0.001635 -16.639500 -2.192510 6.469440 -0.000001 -176.675000 17.064600 175.848000 -39.081100 -0.002282 -0.040193 0.067544 -0.072249 41.655300 -40.985400 0.000008 0.000006 9.446640 2.464260 -77.872700 -11.754300 -0.000006 -0.000006 -1.416790 -1.709480 -18.540100
